<svg width="214" height="59" viewBox="0 0 214 59" fill="none" xmlns="http://www.w3.org/2000/svg">
    <path fill-rule="evenodd" clip-rule="evenodd" d="M83.6043 12.5655H82.2713L75.5723 0.146729H70.4199V21.0935H75.0572V10.1416H76.5727L81.1194 19.0592H84.7562L89.3029 10.1416H90.8184V21.0935H95.4557V0.146729H90.3033L83.6043 12.5655ZM136.418 8.07669H128.112V4.63563H142.16V0.146758H123.273V21.0935H136.418C141.102 21.0935 143.58 18.4907 143.58 14.5704C143.58 10.6502 140.8 8.07669 136.418 8.07669ZM136.026 16.7528H128.112V12.4161H136.03C137.843 12.4161 138.688 13.0141 138.688 14.5704C138.688 16.1268 137.839 16.7554 136.026 16.7554V16.7528ZM115.392 0.146758H121.358L111.643 10.2804L121.604 21.0935H115.422L107.772 12.7151H105.081V21.0935H100.185V0.146758H105.081V8.22619H107.772L115.392 0.146758Z" fill="white"/>
    <path d="M3.70752 39.522H5.65216L9.61696 50.1703L13.5062 39.522H15.4698L17.169 53.04H15.5264L14.167 42.1463L10.1645 53.0778H9.0128L4.99136 42.1652L3.61312 53.04H2.00832L3.70752 39.522ZM19.9946 43.3735H21.5617V46.7908H24.2049C25.2495 46.7908 26.074 47.074 26.6781 47.6404C27.2823 48.1942 27.5844 48.9494 27.5844 49.906C27.5844 50.8751 27.276 51.6429 26.6593 52.2093C26.0551 52.7631 25.237 53.04 24.2049 53.04H19.9946V43.3735ZM24.0349 51.6429C24.6769 51.6429 25.1614 51.4982 25.4887 51.2087C25.8285 50.9066 25.9985 50.4724 25.9985 49.906C25.9985 49.3521 25.8285 48.9305 25.4887 48.641C25.1489 48.3389 24.6643 48.1879 24.0349 48.1879H21.5617V51.6429H24.0349ZM29.3591 43.3735H30.9261V53.04H29.3591V43.3735ZM39.3491 46.753H54.7363V48.1879H39.3491V46.753ZM65.9699 48.9053H64.7238V53.04H63.1568V43.3735H64.7238V47.4893H66.0077L69.2173 43.3735H71.1242L67.3293 48.2068L71.143 53.04H69.2173L65.9699 48.9053ZM71.7761 51.624C71.9272 51.6618 72.0971 51.6807 72.2859 51.6807C72.8019 51.6807 73.1669 51.4541 73.3809 51.001C73.5949 50.5353 73.7208 49.7297 73.7585 48.5844L73.9096 43.3735H80.763V53.04H79.196V44.7706H75.3822L75.2689 48.8109C75.1808 51.7059 74.2431 53.1533 72.4558 53.1533C72.1789 53.1533 71.8957 53.1156 71.6062 53.04L71.7761 51.624ZM84.0096 43.3735H85.5767V50.6612L90.3722 43.3735H91.9392V53.04H90.3722V45.7524L85.5955 53.04H84.0096V43.3735ZM99.3175 53.2477C98.3357 53.2477 97.4798 53.0463 96.7498 52.6436C96.0323 52.2282 95.4785 51.6429 95.0883 50.8877C94.6982 50.1325 94.5031 49.2515 94.5031 48.2445C94.5031 47.2628 94.6919 46.388 95.0695 45.6202C95.4471 44.8524 95.9694 44.2545 96.6365 43.8266C97.3162 43.3987 98.0903 43.1847 98.9587 43.1847C99.7769 43.1847 100.501 43.3798 101.13 43.77C101.772 44.1601 102.269 44.7077 102.621 45.4125C102.974 46.1048 103.15 46.8977 103.15 47.7914C103.15 48.1564 103.125 48.4396 103.075 48.641H96.0701C96.1456 49.6353 96.4666 50.4031 97.033 50.9444C97.5994 51.4856 98.3546 51.7562 99.2986 51.7562C99.8272 51.7562 100.299 51.6555 100.715 51.4541C101.13 51.2527 101.533 50.9318 101.923 50.4912L102.942 51.624C102.439 52.1779 101.891 52.5869 101.3 52.8512C100.721 53.1156 100.06 53.2477 99.3175 53.2477ZM101.659 47.3194C101.583 46.4635 101.312 45.8027 100.847 45.337C100.381 44.8587 99.7643 44.6196 98.9965 44.6196C98.2287 44.6196 97.5868 44.8587 97.0707 45.337C96.5673 45.8153 96.2463 46.4761 96.1079 47.3194H101.659ZM111.847 48.8487H107.241V53.04H105.674V43.3735H107.241V47.4516H111.847V43.3735H113.414V53.04H111.847V48.8487ZM118.588 44.7706H115.454V43.3735H123.289V44.7706H120.155V53.04H118.588V44.7706ZM128.865 53.2477C127.984 53.2477 127.198 53.04 126.505 52.6247C125.826 52.1967 125.297 51.5989 124.919 50.8311C124.542 50.0633 124.353 49.1885 124.353 48.2068C124.353 47.225 124.542 46.3565 124.919 45.6013C125.297 44.8335 125.826 44.242 126.505 43.8266C127.198 43.3987 127.984 43.1847 128.865 43.1847C129.683 43.1847 130.407 43.3672 131.036 43.7322C131.666 44.0972 132.213 44.6573 132.679 45.4125L131.395 46.2999C131.043 45.7209 130.665 45.3055 130.262 45.0538C129.872 44.7895 129.406 44.6573 128.865 44.6573C127.959 44.6573 127.242 44.972 126.713 45.6013C126.197 46.2307 125.939 47.0991 125.939 48.2068C125.939 49.3018 126.203 50.1703 126.732 50.8122C127.26 51.4415 127.978 51.7562 128.884 51.7562C129.413 51.7562 129.878 51.6303 130.281 51.3786C130.697 51.1143 131.074 50.6926 131.414 50.1136L132.679 51.001C131.76 52.4988 130.489 53.2477 128.865 53.2477ZM137.839 48.9053H136.593V53.04H135.026V43.3735H136.593V47.4893H137.877L141.087 43.3735H142.994L139.199 48.2068L143.012 53.04H141.087L137.839 48.9053ZM144.835 43.3735H146.402V50.6612L151.197 43.3735H152.765V53.04H151.197V45.7524L146.421 53.04H144.835V43.3735ZM156.008 43.3735H157.575V50.6612L162.371 43.3735H163.938V53.04H162.371V45.7524L157.594 53.04H156.008V43.3735ZM159.992 41.0135C159.073 41.0135 158.33 40.7617 157.764 40.2583C157.21 39.7422 156.883 39.0185 156.782 38.0871H158.274C158.425 39.1821 158.997 39.7296 159.992 39.7296C160.961 39.7296 161.521 39.1821 161.672 38.0871H163.182C163.082 39.0185 162.748 39.7422 162.182 40.2583C161.628 40.7617 160.898 41.0135 159.992 41.0135ZM176.813 53.2477C175.907 53.2477 175.114 53.0337 174.434 52.6058C173.754 52.1779 173.226 51.5737 172.848 50.7933C172.483 50.0004 172.301 49.0752 172.301 48.018V45.7712C172.301 44.2608 172.477 43.0211 172.829 42.0519C173.182 41.0701 173.735 40.3149 174.491 39.7863C175.258 39.2576 176.265 38.9178 177.511 38.7668C178.833 38.6157 179.878 38.4521 180.646 38.2759L180.91 39.8052C179.941 40.0191 178.802 40.2016 177.493 40.3527C176.574 40.466 175.844 40.7114 175.303 41.089C174.761 41.454 174.365 42.0015 174.113 42.7316C173.861 43.449 173.729 44.3993 173.717 45.5824C174.497 44.2231 175.636 43.5434 177.134 43.5434C177.99 43.5434 178.745 43.7511 179.399 44.1664C180.067 44.5692 180.583 45.1356 180.948 45.8656C181.325 46.5831 181.514 47.4075 181.514 48.3389C181.514 49.2955 181.313 50.1451 180.91 50.8877C180.52 51.6303 179.966 52.2093 179.248 52.6247C178.531 53.04 177.719 53.2477 176.813 53.2477ZM173.887 48.3956C173.887 49.4151 174.157 50.2332 174.698 50.85C175.24 51.4541 175.963 51.7562 176.87 51.7562C177.788 51.7562 178.531 51.4541 179.097 50.85C179.664 50.2332 179.947 49.4214 179.947 48.4144C179.947 47.3949 179.664 46.5768 179.097 45.96C178.544 45.3307 177.814 45.016 176.907 45.016C176.253 45.016 175.655 45.1985 175.114 45.5636C174.573 45.916 174.163 46.4006 173.887 47.0173V48.3956ZM189.413 51.6618C189.123 52.1653 188.72 52.5555 188.204 52.8324C187.701 53.1093 187.128 53.2477 186.486 53.2477C185.592 53.2477 184.869 52.996 184.315 52.4925C183.761 51.9891 183.484 51.3345 183.484 50.529C183.484 49.8367 183.704 49.264 184.145 48.8109C184.586 48.3578 185.215 48.0494 186.033 47.8858L189.299 47.2628V46.9418C189.299 46.2369 189.098 45.6831 188.695 45.2804C188.292 44.865 187.745 44.6573 187.053 44.6573C186.562 44.6573 186.121 44.7706 185.731 44.9972C185.341 45.2237 184.976 45.5824 184.636 46.0733L183.465 45.0538C183.944 44.4119 184.466 43.9399 185.032 43.6378C185.611 43.3357 186.278 43.1847 187.034 43.1847C188.217 43.1847 189.148 43.5056 189.828 44.1476C190.52 44.7895 190.866 45.6705 190.866 46.7908V53.04H189.413V51.6618ZM185.07 50.5101C185.07 50.9255 185.215 51.2464 185.504 51.473C185.806 51.6996 186.234 51.8128 186.788 51.8128C187.355 51.8128 187.858 51.687 188.299 51.4352C188.752 51.1709 189.085 50.8059 189.299 50.3402V48.6032L186.505 49.1508C185.548 49.3396 185.07 49.7927 185.07 50.5101ZM200.182 48.8487H195.575V53.04H194.008V43.3735H195.575V47.4516H200.182V43.3735H201.749V53.04H200.182V48.8487ZM207.828 48.9053H206.582V53.04H205.015V43.3735H206.582V47.4893H207.866L211.075 43.3735H212.982L209.187 48.2068L213.001 53.04H211.075L207.828 48.9053Z" fill="white"/>
</svg>